# xmcd CD database file
#
# Track frame offsets:
#	150
#	22000
#	46122
#	61092
#	78992
#	97592
#	113115
#	131147
#	151052
#	169877
#	196280
#	218300
#
# Disc length: 3161 seconds
#
# Revision: 0
# Processed by: cddbd v1.4PL0 Copyright (c) Steve Scherf et al.
# Submitted via: CDex 1.40Release
#
DISCID=8a0c570c
DTITLE=The Memphis Sheiks - Up To No Good, Again
DYEAR=1998
DGENRE=Blues
TTITLE0=Just Can't Keep From Crying
TTITLE1=I'm Over You
TTITLE2=Up To No Good, Again
TTITLE3=Summer Rain
TTITLE4=Rags To Riches
TTITLE5=I Fell In Love
TTITLE6=Nobody Else No How
TTITLE7=Can't Go Home Again
TTITLE8=Tennessee Blues
TTITLE9=Lilies
TTITLE10=The Woman Doth Protest
TTITLE11=Things Done Got Out Of Hand
EXTD=YEAR: 1998 ID3G: 0
EXTT0=
EXTT1=
EXTT2=
EXTT3=
EXTT4=
EXTT5=
EXTT6=
EXTT7=
EXTT8=
EXTT9=
EXTT10=
EXTT11=
PLAYORDER=
